<?xml version="1.0" standalone="no"?>
<!DOCTYPE svg PUBLIC "-//W3C//DTD SVG 20010904//EN"
 "http://www.w3.org/TR/2001/REC-SVG-20010904/DTD/svg10.dtd">
<svg version="1.0" xmlns="http://www.w3.org/2000/svg"
 width="256.000000pt" height="256.000000pt" viewBox="0 0 256.000000 256.000000"
 preserveAspectRatio="xMidYMid meet">
<metadata>
Created by potrace 1.11, written by Peter Selinger 2001-2013
</metadata>
<g transform="translate(0.000000,256.000000) scale(0.100000,-0.100000)"
fill="#000000" stroke="none">
<path d="M1140 2553 c-23 -3 -121 -20 -161 -28 -9 -2 -57 -17 -107 -34 -381
-127 -678 -427 -806 -811 -50 -150 -64 -249 -61 -420 3 -210 43 -377 133 -555
174 -348 510 -604 893 -680 94 -19 340 -28 409 -15 25 4 63 11 85 14 22 4 58
12 80 18 22 6 45 12 50 14 6 1 39 13 75 27 352 133 627 413 754 765 23 65 42
137 61 237 13 66 12 321 -1 400 -96 549 -510 962 -1064 1060 -41 7 -304 14
-340 8z"/>
</g>
</svg>
